<svg width="24" height="24" viewBox="0 0 24 24" fill="none" xmlns="http://www.w3.org/2000/svg">
<mask id="mask0_15029_1499" style="mask-type:alpha" maskUnits="userSpaceOnUse" x="0" y="0" width="24" height="24">
<rect width="24" height="24" fill="url(#paint0_linear_15029_1499)"/>
</mask>
<g mask="url(#mask0_15029_1499)">
<path d="M13.5213 11.05L9.98275 7.5115L10.6963 6.823L13.5213 9.648L19.1963 3.998L19.8845 4.6865L13.5213 11.05ZM7 18.6538L14.5655 20.8615L20.5538 19.0115C20.5346 18.7077 20.4427 18.4888 20.278 18.3548C20.1132 18.2208 19.9308 18.1538 19.7308 18.1538H14.9885C14.5642 18.1538 14.1802 18.1371 13.8365 18.1038C13.493 18.0704 13.1411 17.991 12.7808 17.8655L10.5905 17.148L10.9288 16.1595L12.9538 16.8923C13.2756 17.0141 13.641 17.0872 14.05 17.1115C14.459 17.1358 15.0193 17.1499 15.7308 17.1538C15.7308 16.8423 15.6734 16.5903 15.5588 16.398C15.4439 16.2057 15.2795 16.0718 15.0655 15.9963L9.3115 13.8845C9.273 13.8718 9.23775 13.8623 9.20575 13.8558C9.17375 13.8494 9.1385 13.8463 9.1 13.8463H7V18.6538ZM3 21V12.8463H9.08075C9.17175 12.8463 9.266 12.8555 9.3635 12.874C9.46083 12.8927 9.55317 12.9187 9.6405 12.952L15.4193 15.0693C15.7769 15.2051 16.0849 15.4493 16.3433 15.802C16.6016 16.1545 16.7308 16.6051 16.7308 17.1538H19.7308C20.3333 17.1538 20.7948 17.3423 21.1155 17.7193C21.436 18.0961 21.5963 18.5743 21.5963 19.1538V19.7693L14.6155 21.923L7 19.7038V21H3ZM4 20H6V13.8463H4V20Z" fill="url(#paint1_linear_15029_1499)"/>
</g>
<defs>
<linearGradient id="paint0_linear_15029_1499" x1="12" y1="0" x2="12" y2="24" gradientUnits="userSpaceOnUse">
<stop stop-color="#8D48F7"/>
<stop offset="1" stop-color="#5B05DD"/>
</linearGradient>
<linearGradient id="paint1_linear_15029_1499" x1="12.2981" y1="3.998" x2="12.2981" y2="21.923" gradientUnits="userSpaceOnUse">
<stop stop-color="#8D48F7"/>
<stop offset="1" stop-color="#5B05DD"/>
</linearGradient>
</defs>
</svg>
