<svg width="24" height="24" viewBox="0 0 24 24" fill="none" xmlns="http://www.w3.org/2000/svg">
<mask id="mask0_15029_1496" style="mask-type:alpha" maskUnits="userSpaceOnUse" x="0" y="0" width="24" height="24">
<rect width="24" height="24" fill="url(#paint0_linear_15029_1496)"/>
</mask>
<g mask="url(#mask0_15029_1496)">
<path d="M3 20V19H11.5V7.9405C11.0282 7.8545 10.6115 7.64033 10.25 7.298C9.8885 6.95567 9.65833 6.523 9.5595 6H6.1155L9 13.2115C8.9615 13.8782 8.65192 14.4455 8.07125 14.9135C7.49042 15.3815 6.8 15.6155 6 15.6155C5.2 15.6155 4.50958 15.3815 3.92875 14.9135C3.34808 14.4455 3.0385 13.8782 3 13.2115L5.8845 6H4V5H9.5595C9.66983 4.44233 9.94808 3.96958 10.3942 3.58175C10.8404 3.19392 11.3757 3 12 3C12.6243 3 13.1596 3.19392 13.6058 3.58175C14.0519 3.96958 14.3302 4.44233 14.4405 5H20V6H18.1155L21 13.2115C20.9615 13.8782 20.6519 14.4455 20.0712 14.9135C19.4904 15.3815 18.8 15.6155 18 15.6155C17.2 15.6155 16.5096 15.3815 15.9288 14.9135C15.3481 14.4455 15.0385 13.8782 15 13.2115L17.8845 6H14.4405C14.3417 6.523 14.1115 6.95567 13.75 7.298C13.3885 7.64033 12.9718 7.8545 12.5 7.9405V19H21V20H3ZM15.9905 13.1155H20.0095L18 8.09225L15.9905 13.1155ZM3.9905 13.1155H8.0095L6 8.09225L3.9905 13.1155ZM12 7C12.4115 7 12.7644 6.85292 13.0587 6.55875C13.3529 6.26442 13.5 5.9115 13.5 5.5C13.5 5.0885 13.3529 4.73558 13.0587 4.44125C12.7644 4.14708 12.4115 4 12 4C11.5885 4 11.2356 4.14708 10.9412 4.44125C10.6471 4.73558 10.5 5.0885 10.5 5.5C10.5 5.9115 10.6471 6.26442 10.9412 6.55875C11.2356 6.85292 11.5885 7 12 7Z" fill="url(#paint1_linear_15029_1496)"/>
</g>
<defs>
<linearGradient id="paint0_linear_15029_1496" x1="12" y1="0" x2="12" y2="24" gradientUnits="userSpaceOnUse">
<stop stop-color="#8D48F7"/>
<stop offset="1" stop-color="#5B05DD"/>
</linearGradient>
<linearGradient id="paint1_linear_15029_1496" x1="12" y1="3" x2="12" y2="20" gradientUnits="userSpaceOnUse">
<stop stop-color="#8D48F7"/>
<stop offset="1" stop-color="#5B05DD"/>
</linearGradient>
</defs>
</svg>
